<svg width="96" height="96" xmlns="http://www.w3.org/2000/svg" xmlns:xlink="http://www.w3.org/1999/xlink" xml:space="preserve" overflow="hidden"><defs><clipPath id="clip0"><rect x="592" y="312" width="96" height="96"/></clipPath></defs><g clip-path="url(#clip0)" transform="translate(-592 -312)"><path d="M674.9 351.1C674.6 351.1 674.3 351.1 674 351.1L671.4 344.1C677.4 340.7 679.5 333.1 676.2 327.1 672.8 321.1 665.2 319 659.2 322.3 656.3 323.9 654.1 326.7 653.3 329.9L644 328.9C643.3 324.5 639.2 321.4 634.8 322.1 630.8 322.7 627.9 326.1 627.9 330.1 627.9 331.5 628.3 332.9 629 334.2L617.8 345.2C615.7 343.6 613.1 342.7 610.4 342.7 603.5 342.7 597.9 348.3 597.9 355.2 597.9 362.1 603.5 367.7 610.4 367.7L612.9 382.7C608.8 384.5 606.9 389.3 608.7 393.4 610.5 397.5 615.3 399.4 619.4 397.6 623.2 396 625.1 391.8 624 387.8L632.8 383.2C638.5 389.5 648.3 390 654.7 384.3 657.9 381.4 659.8 377.2 659.8 372.9 659.8 371.8 659.7 370.6 659.4 369.5L669.1 364.5C672.1 367.9 677.2 368.2 680.6 365.2 684 362.2 684.3 357.1 681.3 353.7 679.4 352.1 677.2 351.1 674.9 351.1L674.9 351.1ZM674.9 354.1C676.2 354.1 677.2 355.1 677.2 356.4 677.2 357.7 676.2 358.7 674.9 358.7 673.6 358.7 672.6 357.7 672.6 356.4 672.6 356.4 672.6 356.4 672.6 356.4 672.6 355.1 673.6 354.1 674.9 354.1L674.9 354.1ZM665.3 325.6C667.2 325.6 668.8 327.2 668.8 329.1 668.8 331 667.2 332.6 665.3 332.6 663.4 332.6 661.8 331 661.8 329.1 661.8 329.1 661.8 329.1 661.8 329.1 661.8 327.2 663.3 325.6 665.3 325.6ZM658.2 337C658.2 336.5 658.5 335.9 658.9 335.6 659.9 334.9 661.1 334.3 662.3 334 663.2 333.7 664.2 333.6 665.2 333.6 666.2 333.6 667.2 333.8 668.1 334 669.3 334.3 670.5 334.9 671.5 335.7 671.9 336 672.2 336.6 672.2 337.1L672.2 339.8 658.2 339.8 658.2 337ZM635.9 325C637.2 325 638.2 326 638.2 327.3 638.2 328.6 637.2 329.6 635.9 329.6 634.6 329.6 633.6 328.6 633.6 327.3 633.6 327.3 633.6 327.3 633.6 327.3 633.6 326.1 634.6 325 635.9 325L635.9 325ZM631.2 332.5C631.2 332.1 631.4 331.8 631.7 331.6 632.4 331.1 633.2 330.8 634 330.6 634.6 330.4 635.3 330.3 635.9 330.3 636.5 330.3 637.2 330.4 637.8 330.6 638.6 330.8 639.3 331.2 640 331.7 640.3 331.9 640.5 332.3 640.5 332.6L640.5 334.4 631.3 334.4 631.3 332.5ZM610.2 347.6C612.1 347.6 613.7 349.2 613.7 351.1 613.7 353 612.1 354.6 610.2 354.6 608.3 354.6 606.7 353 606.7 351.1 606.7 351.1 606.7 351.1 606.7 351.1 606.8 349.2 608.3 347.6 610.2 347.6L610.2 347.6ZM603.2 361.7 603.2 359C603.2 358.5 603.5 357.9 603.9 357.6 604.9 356.9 606.1 356.3 607.3 356 608.2 355.7 609.2 355.6 610.2 355.6 611.2 355.6 612.2 355.8 613.1 356 614.3 356.3 615.5 356.9 616.5 357.7 616.9 358 617.2 358.6 617.2 359.1L617.2 361.8 603.2 361.7ZM620.5 394.3 611.2 394.3 611.2 392.5C611.2 392.1 611.4 391.8 611.7 391.6 612.4 391.1 613.2 390.7 614 390.5 614.6 390.3 615.3 390.2 615.9 390.2 616.5 390.2 617.2 390.3 617.8 390.5 618.6 390.7 619.3 391.1 620 391.6 620.3 391.8 620.5 392.2 620.5 392.5L620.5 394.3ZM613.5 387.3C613.5 386 614.5 385 615.8 385 617.1 385 618.1 386 618.1 387.3 618.1 388.6 617.1 389.6 615.8 389.6 614.6 389.7 613.6 388.6 613.5 387.3L613.5 387.3ZM621.5 384.5C620.2 383.2 618.4 382.4 616.6 382.2L614.1 367.2C616.5 366.4 618.6 364.9 620.1 362.9L629.4 367.8C627.9 371.8 628.2 376.3 630.2 380.1L621.5 384.5ZM631.3 364.1 622.1 359.3C622.5 358 622.7 356.7 622.7 355.3 622.7 352.7 621.9 350.2 620.4 348.1L631.6 337.2C635.4 339.5 640.4 338.4 642.7 334.6 643 334.1 643.2 333.6 643.4 333.1L652.7 334.1C652.9 337.7 654.7 341.1 657.6 343.3L649.4 358.6C642.9 356 635.4 358.3 631.3 364.1L631.3 364.1ZM648.3 367.8C648.3 370.2 646.3 372.1 643.9 372.1 641.5 372.1 639.6 370.2 639.6 367.8 639.6 365.4 641.5 363.5 643.9 363.5 643.9 363.5 643.9 363.5 644 363.5 646.4 363.5 648.3 365.4 648.3 367.8L648.3 367.8ZM652.6 380.9 635.3 380.9 635.3 377.6C635.3 376.9 635.6 376.3 636.2 375.9 637.5 375 638.9 374.3 640.4 373.8 641.6 373.5 642.8 373.3 644 373.3 645.2 373.3 646.4 373.5 647.6 373.8 649.1 374.2 650.6 374.9 651.8 375.9 652.3 376.3 652.7 377 652.7 377.6L652.6 380.9ZM666.8 359.3C666.8 359.9 666.9 360.5 667.1 361.1L657.9 365.9C656.8 363.7 655.1 361.9 653.1 360.5L661.3 345.2C662.6 345.7 664 345.9 665.4 345.9 666.2 345.9 667 345.8 667.8 345.7L670.4 352.7C668 354.1 666.7 356.6 666.8 359.3ZM679.5 363.3 670.2 363.3 670.2 361.5C670.2 361.1 670.4 360.8 670.7 360.6 671.4 360.1 672.2 359.7 673 359.5 673.6 359.3 674.3 359.2 674.9 359.2 675.5 359.2 676.2 359.3 676.8 359.5 677.6 359.7 678.3 360.1 679 360.6 679.3 360.8 679.5 361.2 679.5 361.5L679.5 363.3Z"/></g></svg>